<svg width="18" height="18" viewBox="0 0 18 18" fill="none" xmlns="http://www.w3.org/2000/svg">
<path fill-rule="evenodd" clip-rule="evenodd" d="M11 3.23607L7 5.23607V12L11 14V3.23607ZM13 0L5.76392 3.61804H2C0.89543 3.61804 0 4.51347 0 5.61804V11.618C0 12.7226 0.89543 13.618 2 13.618H5.76395L13 17.2361V0ZM2 5.61804H5V11.618H2V5.61804ZM18 8.61803C18 6.20737 17.0649 4.03041 15.5747 2.55823L13.9973 3.82021C15.2072 4.90974 16 6.6437 16 8.61803C16 10.5924 15.2072 12.3263 13.9973 13.4158L15.5747 14.6778C17.0649 13.2056 18 11.0287 18 8.61803Z" fill="white"/>
</svg>
