<svg width="30" height="30" fill="none" xmlns="http://www.w3.org/2000/svg"><g clip-path="url(#clip0_1927_1445)"><path d="M15 .442A14.558 14.558 0 1029.558 15 14.575 14.575 0 0015 .442z" fill="#A6AFB9"/><path d="M15.013 22.2a1.483 1.483 0 100-2.965 1.483 1.483 0 000 2.965zm.001-4.871h-.01a.987.987 0 01-.977-.996c.012-1.293 1.075-2.626 2.013-3.802.194-.242.379-.473.54-.688a1.197 1.197 0 00.053-1.271 1.87 1.87 0 00-1.58-1.058c-1.142 0-2.075.687-2.075 1.5a.987.987 0 11-1.974 0c0-1.916 1.801-3.474 4.015-3.474h.095a3.814 3.814 0 013.294 2.16 3.138 3.138 0 01-.25 3.327c-.172.23-.37.478-.577.738-.627.79-1.578 1.973-1.578 2.588a.987.987 0 01-.989.977z" fill="#fff"/></g><defs><clipPath id="clip0_1927_1445"><path fill="#fff" d="M0 0h30v30H0z"/></clipPath></defs></svg>