<svg width="146" height="76" fill="none" xmlns="http://www.w3.org/2000/svg"><path fill-rule="evenodd" clip-rule="evenodd" d="M146 62s-.251-15.728-18.465-18.23c-.773.13-2.159-.108-3.006-.108H21.471C9.61 43.662 0 33.888 0 21.83 0 9.774 9.612 0 21.47 0h103.06C136.386 0 146 9.774 146 21.83c0 .593-.03 1.178-.075 1.759.043.31.075.634.075.99V62z" fill="#3E80CE"/><path d="M28.528 33.288c-1.707 0-3.296-.181-4.768-.544-1.45-.384-2.645-.907-3.584-1.568-.363-.277-.63-.565-.8-.864-.15-.299-.224-.683-.224-1.152 0-.64.192-1.195.576-1.664.384-.47.832-.704 1.344-.704.277 0 .544.043.8.128s.576.245.96.48c.875.49 1.739.843 2.592 1.056.875.213 1.856.32 2.944.32 1.259 0 2.208-.181 2.848-.544.661-.384.992-.939.992-1.664 0-.49-.31-.907-.928-1.248-.597-.363-1.75-.715-3.456-1.056-2.112-.448-3.765-.981-4.96-1.6-1.195-.619-2.037-1.344-2.528-2.176-.47-.853-.704-1.877-.704-3.072a6.14 6.14 0 011.216-3.712c.81-1.11 1.92-1.973 3.328-2.592 1.43-.64 3.03-.96 4.8-.96 1.557 0 2.944.17 4.16.512a10.45 10.45 0 013.328 1.6c.384.277.65.576.8.896.17.299.256.672.256 1.12 0 .64-.192 1.195-.576 1.664-.363.47-.8.704-1.312.704-.277 0-.533-.032-.768-.096-.235-.085-.565-.256-.992-.512a20.825 20.825 0 00-.928-.48c-.49-.277-1.077-.49-1.76-.64a8.697 8.697 0 00-2.176-.256c-1.088 0-1.963.213-2.624.64-.661.405-.992.95-.992 1.632 0 .405.117.736.352.992s.672.512 1.312.768c.64.235 1.59.48 2.848.736 2.048.448 3.659.992 4.832 1.632 1.173.619 2.005 1.344 2.496 2.176.49.832.736 1.813.736 2.944 0 1.408-.395 2.656-1.184 3.744-.79 1.067-1.899 1.899-3.328 2.496-1.408.576-3.05.864-4.928.864zm24.45 0c-2.304 0-4.31-.47-6.016-1.408a9.871 9.871 0 01-3.904-4.032c-.917-1.75-1.376-3.797-1.376-6.144s.459-4.384 1.376-6.112c.917-1.75 2.219-3.093 3.904-4.032 1.707-.939 3.712-1.408 6.016-1.408s4.299.47 5.984 1.408c1.707.939 3.008 2.283 3.904 4.032.917 1.728 1.376 3.765 1.376 6.112s-.459 4.395-1.376 6.144a9.817 9.817 0 01-3.936 4.032c-1.685.939-3.67 1.408-5.952 1.408zm0-4.512c1.707 0 3.04-.597 4-1.792.96-1.216 1.44-2.976 1.44-5.28 0-2.304-.49-4.053-1.472-5.248-.96-1.195-2.283-1.792-3.968-1.792-1.707 0-3.04.597-4 1.792-.96 1.173-1.44 2.923-1.44 5.248s.48 4.085 1.44 5.28c.96 1.195 2.293 1.792 4 1.792zm28.475-17.568c.554-.64 1.205-.96 1.952-.96.704 0 1.333.277 1.888.832.576.533.864 1.152.864 1.856 0 .619-.235 1.205-.704 1.76l-6.72 7.776v7.808c0 .939-.278 1.664-.832 2.176-.534.49-1.227.736-2.08.736-.875 0-1.59-.245-2.144-.736-.555-.512-.832-1.237-.832-2.176v-7.808l-6.656-7.776c-.49-.555-.736-1.152-.736-1.792 0-.704.277-1.323.832-1.856.554-.533 1.184-.8 1.888-.8.746 0 1.397.32 1.952.96l5.664 6.72 5.664-6.72zM91.93 33c-.875 0-1.547-.235-2.017-.704-.47-.47-.704-1.152-.704-2.048V13.16c0-.875.256-1.568.768-2.08.534-.533 1.248-.8 2.144-.8.918 0 1.643.267 2.176.8.534.512.8 1.205.8 2.08v15.072h7.36c1.856 0 2.784.8 2.784 2.4 0 .81-.234 1.408-.704 1.792-.448.384-1.141.576-2.08.576H91.929zm19.272 0c-.875 0-1.547-.235-2.016-.704-.47-.47-.704-1.141-.704-2.016V13.16c0-.875.234-1.547.704-2.016.469-.47 1.141-.704 2.016-.704h11.072c.917 0 1.61.192 2.08.576.469.384.704.939.704 1.664 0 1.536-.928 2.304-2.784 2.304h-8.064v4.288h7.424c1.856 0 2.784.757 2.784 2.272 0 .725-.235 1.28-.704 1.664-.47.384-1.163.576-2.08.576h-7.424v4.672h8.064c1.856 0 2.784.768 2.784 2.304 0 .725-.235 1.28-.704 1.664-.47.384-1.163.576-2.08.576h-11.072z" fill="#fff"/><path d="M54.688 66.252c-1.02 0-2.01-.126-2.97-.378-.96-.252-1.74-.588-2.34-1.008l1.17-2.628a7.57 7.57 0 001.962.9 7.469 7.469 0 002.196.342c1.368 0 2.052-.342 2.052-1.026 0-.36-.198-.624-.594-.792-.384-.18-1.008-.366-1.872-.558-.948-.204-1.74-.42-2.376-.648a4.078 4.078 0 01-1.638-1.134c-.456-.516-.684-1.212-.684-2.088 0-.768.21-1.458.63-2.07.42-.624 1.044-1.116 1.872-1.476.84-.36 1.866-.54 3.078-.54.828 0 1.644.096 2.448.288.804.18 1.512.45 2.124.81l-1.098 2.646c-1.2-.648-2.364-.972-3.492-.972-.708 0-1.224.108-1.548.324-.324.204-.486.474-.486.81 0 .336.192.588.576.756.384.168 1.002.342 1.854.522.96.204 1.752.426 2.376.666.636.228 1.182.6 1.638 1.116.468.504.702 1.194.702 2.07 0 .756-.21 1.44-.63 2.052-.42.612-1.05 1.104-1.89 1.476-.84.36-1.86.54-3.06.54zm14.48 0c-1.332 0-2.532-.282-3.6-.846a6.438 6.438 0 01-2.502-2.34c-.6-.996-.9-2.118-.9-3.366 0-1.248.3-2.37.9-3.366a6.438 6.438 0 012.502-2.34c1.068-.564 2.268-.846 3.6-.846 1.332 0 2.526.282 3.582.846 1.068.564 1.902 1.344 2.502 2.34.612.996.918 2.118.918 3.366 0 1.248-.306 2.37-.918 3.366-.6.996-1.434 1.776-2.502 2.34-1.056.564-2.25.846-3.582.846zm0-2.952c.636 0 1.212-.15 1.728-.45.516-.3.924-.72 1.224-1.26.3-.552.45-1.182.45-1.89s-.15-1.332-.45-1.872a3.222 3.222 0 00-1.224-1.278 3.375 3.375 0 00-1.728-.45c-.636 0-1.212.15-1.728.45-.516.3-.924.726-1.224 1.278-.3.54-.45 1.164-.45 1.872 0 .708.15 1.338.45 1.89.3.54.708.96 1.224 1.26.516.3 1.092.45 1.728.45zm20.32-.126V66H78.2v-2.232l6.355-7.542h-6.192V53.4h10.853v2.232l-6.353 7.542h6.623zm2.46-9.774h5.958c1.38 0 2.604.258 3.672.774s1.896 1.248 2.484 2.196c.588.948.882 2.058.882 3.33 0 1.272-.294 2.382-.882 3.33-.588.948-1.416 1.68-2.484 2.196-1.068.516-2.292.774-3.672.774h-5.958V53.4zm5.814 9.756c1.08 0 1.944-.306 2.592-.918.66-.612.99-1.458.99-2.538 0-1.08-.33-1.926-.99-2.538-.648-.612-1.512-.918-2.592-.918h-2.25v6.912h2.25zm9.957-9.756h3.564V66h-3.564V53.4zm11.86 8.028l-1.332 1.422V66h-3.528V53.4h3.528v5.238l4.878-5.238h3.924l-5.148 5.58 5.418 7.02h-4.14l-3.6-4.572zM22.012 65H37V51a2 2 0 00-2-2H22c-1.206 0-3 .799-3 3v14c0 2.201 1.794 3 3 3h15v-2H22.012C21.55 66.988 21 66.805 21 66c0-.805.55-.988 1.012-1zM24 53h9v2h-9v-2z" fill="#3E80CE"/></svg>