<svg width="46" height="46" fill="none" xmlns="http://www.w3.org/2000/svg"><g clip-path="url(#clip0_1946_194)"><path d="M35.807 10.193a8.642 8.642 0 00-12.2 0c-2.353 2.352-5.5 15.417-5.851 16.9a.959.959 0 00.677 1.133.972.972 0 00.483.012c1.483-.352 14.543-3.503 16.899-5.855a8.624 8.624 0 000-12.198l-.008.008zm-6.099 8.974a2.875 2.875 0 110-5.75 2.875 2.875 0 010 5.75zm16.01-11.219L38.052.282a.945.945 0 00-1.2-.135.958.958 0 00-.3.31l-2.874 4.79a.958.958 0 00.144 1.174l5.75 5.75a.958.958 0 001.17.144l4.792-2.875a.958.958 0 00.192-1.5l-.008.008z" fill="#FF8901"/><path d="M32.583 34.5H9.606a1.76 1.76 0 01-1.94-1.917 1.754 1.754 0 011.917-1.916h3.834a1.917 1.917 0 000-3.834H9.583a5.59 5.59 0 00-5.75 5.75 5.589 5.589 0 005.75 5.75H32.56a1.917 1.917 0 01.023 3.834H1.917a1.917 1.917 0 100 3.833h30.666a5.75 5.75 0 100-11.5z" fill="#1D5C73"/></g><defs><clipPath id="clip0_1946_194"><path fill="#fff" d="M0 0h46v46H0z"/></clipPath></defs></svg>