<svg width="45" height="46" fill="none" xmlns="http://www.w3.org/2000/svg"><path d="M30.109 19.326l-3.781-3.782c.093 0 .14-.046.233-.093.467-.14.98-.28 1.587-.84.514-.514.794-1.12.794-1.774a2.41 2.41 0 00-.794-1.774c-.513-.514-1.167-.793-1.82-.793-.654 0-1.26.28-1.774.793-.56.56-.7 1.12-.84 1.587-.047.093-.047.187-.094.234-.747-.7-2.987-2.988-3.734-3.735-.794-.793-1.214-.793-2.007 0L14.47 12.51c-.84.84-.607 1.447-.28 1.774.373.373.84.513 1.214.607.373.093.653.14.933.42.514.513.514 1.167 0 1.68-.513.514-1.167.514-1.68 0-.28-.28-.374-.56-.467-.933-.094-.374-.234-.794-.607-1.167-.514-.514-1.074-.42-1.774.233L8.402 18.58c-.746.747-.746 1.213.047 2.007l3.781 3.781c-.046 0-.14.047-.233.047-.42.093-1.027.233-1.634.84-.513.513-.793 1.167-.793 1.82 0 .654.28 1.307.793 1.821.514.514 1.167.794 1.82.794.654 0 1.261-.28 1.821-.794.56-.56.747-1.12.84-1.54.047-.094.047-.187.094-.234l3.78 3.781c.421.42.701.56.981.56s.56-.186.98-.56l3.408-3.407c.14-.14.374-.374.467-.654.187-.373.093-.747-.233-1.074-.374-.373-.84-.513-1.168-.607-.326-.093-.606-.186-.933-.466-.28-.28-.42-.56-.42-.84 0-.28.14-.56.42-.84.233-.234.56-.374.84-.374.28 0 .607.14.84.373.28.28.327.56.42.934.094.233.187.7.56 1.073.468.467 1.074.374 1.775-.28l3.407-3.407c.374-.374.607-.654.607-.98 0-.374-.233-.7-.56-1.027z" fill="#FF8901"/><path d="M19.232.7c-5.134 0-9.99 2.007-13.63 5.648C2.007 9.99 0 14.798 0 19.932c0 5.135 2.007 9.99 5.648 13.631 3.641 3.641 8.45 5.648 13.631 5.648a19.19 19.19 0 0011.297-3.64l.466-.328.094.094 9.57 9.57a2.55 2.55 0 001.773.746 2.55 2.55 0 001.774-.747A2.468 2.468 0 0045 43.133a2.55 2.55 0 00-.747-1.774l-9.756-9.663.327-.467c5.601-7.702 4.761-18.159-1.96-24.927A19.328 19.328 0 0019.231.7zM30.67 31.369c-3.034 3.081-7.095 4.761-11.437 4.761-4.294 0-8.355-1.68-11.436-4.714C4.76 28.335 3.08 24.274 3.08 19.932c0-4.341 1.68-8.355 4.715-11.39 3.08-3.08 7.142-4.761 11.436-4.761 4.295 0 8.356 1.68 11.437 4.715 6.302 6.348 6.302 16.571 0 22.873z" fill="#1D5C73"/></svg>