<svg width="39" height="45" fill="none" xmlns="http://www.w3.org/2000/svg"><path fill-rule="evenodd" clip-rule="evenodd" d="M13.5 1.5A1.5 1.5 0 0115 0h9a1.5 1.5 0 010 3h-3v3.358a19.088 19.088 0 018.976 3.05c.059-.082.125-.16.198-.234l3-3a1.875 1.875 0 012.652 2.652L32.9 11.75a19.142 19.142 0 015.8 13.75c0 10.604-8.596 19.2-19.2 19.2S.3 36.104.3 25.5C.3 15.4 8.097 7.123 18 6.358V3h-3a1.5 1.5 0 01-1.5-1.5zm-10.2 24c0-8.947 7.253-16.2 16.2-16.2s16.2 7.253 16.2 16.2-7.253 16.2-16.2 16.2S3.3 34.447 3.3 25.5z" fill="#1D5C73"/><path fill-rule="evenodd" clip-rule="evenodd" d="M19.2 25.5V12.3C11.91 12.3 6 18.21 6 25.5c0 7.29 5.91 13.2 13.2 13.2 3.645 0 6.945-1.478 9.334-3.866L19.2 25.5z" fill="#FF8901"/></svg>