<svg width="50" height="49" fill="none" xmlns="http://www.w3.org/2000/svg"><path d="M19.603 48.092l6.107-6.13c0 .15.075.226.15.378.227.757.453 1.59 1.358 2.573.829.833 1.809 1.287 2.864 1.287a3.888 3.888 0 002.865-1.287c.83-.832 1.282-1.892 1.282-2.952s-.452-2.043-1.282-2.875c-.904-.909-1.809-1.136-2.563-1.363-.15-.075-.302-.075-.377-.151 1.131-1.211 4.825-4.844 6.032-6.055 1.281-1.287 1.281-1.968 0-3.254l-5.429-5.525c-1.357-1.363-2.337-.984-2.865-.454-.603.605-.83 1.362-.98 1.968-.15.605-.226 1.06-.678 1.513-.83.833-1.885.833-2.715 0-.829-.832-.829-1.892 0-2.724.453-.455.905-.606 1.508-.757.603-.152 1.282-.379 1.885-.984.83-.833.679-1.74-.377-2.876l-5.579-5.525c-1.206-1.211-1.96-1.211-3.242.076l-6.107 6.13c0-.076-.075-.227-.075-.378-.151-.682-.377-1.666-1.357-2.65-.83-.832-1.885-1.286-2.94-1.286-1.056 0-2.112.454-2.941 1.287-.83.832-1.282 1.892-1.282 2.951 0 1.06.452 2.044 1.282 2.952a4.833 4.833 0 002.488 1.362c.15.076.301.076.377.152l-6.107 6.13C.226 30.306 0 30.76 0 31.215c0 .454.302.908.905 1.589l5.504 5.525c.226.227.603.605 1.055.757.603.302 1.206.15 1.734-.379.603-.605.83-1.362.98-1.892.151-.53.302-.984.754-1.514.453-.454.905-.68 1.357-.68.453 0 .905.226 1.357.68.377.379.604.908.604 1.363 0 .454-.227.983-.604 1.362-.452.454-.904.53-1.507.681-.377.151-1.131.303-1.734.908-.754.757-.604 1.741.452 2.876l5.504 5.525c.603.606 1.055.984 1.583.984.603 0 1.13-.378 1.659-.908z" fill="#FF8901"/><path d="M49.063 4.925L45.073.934a3.19 3.19 0 00-4.51 0l-3.751 3.755 8.44 8.5 3.756-3.755a3.134 3.134 0 00.055-4.51zM18.061 23.382c-.148.148-.25.337-.29.543l-1.75 8.745c-.134.673.388 1.33 1.038 1.33.07 0 .14-.007.212-.021l8.746-1.75c.206-.04.395-.141.543-.29l17.246-17.245-8.5-8.5L18.06 23.382zm6.698 5.85l-4.99.998.998-4.99 1.608-1.606v3.991h3.992l-1.608 1.607z" fill="#1D5C73"/></svg>