<svg width="63" height="63" fill="none" xmlns="http://www.w3.org/2000/svg"><path d="M56.709 19.68a1.89 1.89 0 010 2.665l-2.261 2.26 4.959 4.96-4.156 4.154-1.457-1.457a3.027 3.027 0 00-4.272 0 3.024 3.024 0 000 4.272l1.458 1.457-4.151 4.151-4.155-4.155 1.448-1.449.005-.004.008-.008a3.03 3.03 0 000-4.272 3.027 3.027 0 00-4.271 0l-1.462 1.461-4.159-4.159 4.95-4.95-2.256-2.257a1.892 1.892 0 010-2.673 1.886 1.886 0 012.669.004l2.256 2.257 4.959-4.959 4.958 4.96 2.26-2.262a1.89 1.89 0 012.67.005z" fill="#FF8901"/><path d="M43.323 33.066a1.886 1.886 0 010 2.665l-2.26 2.26 4.958 4.959-4.95 4.95 2.26 2.261a1.886 1.886 0 01-2.668 2.669l-2.261-2.261-4.959 4.959-4.958-4.959-2.26 2.26a1.89 1.89 0 01-2.666 0 1.89 1.89 0 01-.004-2.668l2.261-2.26-4.958-4.96 4.958-4.958-2.256-2.256a1.887 1.887 0 01-.005-2.67 1.886 1.886 0 012.665.01l2.257 2.256 4.958-4.959 4.959 4.959 2.26-2.261a1.887 1.887 0 012.67.004z" fill="#1D5C73"/><path d="M22.747 26.863a3.023 3.023 0 004.272 0l1.457-1.458 4.16 4.16-4.147 4.146-1.457-1.457a3.027 3.027 0 00-4.272 0l-.004.004-.005.004a3.023 3.023 0 000 4.272l1.458 1.457-4.16 4.16-4.958-4.96-2.26 2.261a1.89 1.89 0 01-2.665 0 1.89 1.89 0 01-.005-2.668l2.261-2.26-4.958-4.96 4.958-4.958-2.26-2.26a1.89 1.89 0 01.004-2.67 1.89 1.89 0 012.664 0l2.26 2.261 4.96-4.958 4.159 4.159-1.457 1.457a3.022 3.022 0 00-.005 4.268z" fill="#FF8901"/><path d="M36.129 13.481a3.027 3.027 0 004.271 0l1.462-1.462 4.16 4.16-4.156 4.155-1.457-1.457a3.013 3.013 0 00-2.14-.883c-.775 0-1.544.295-2.131.883a3.023 3.023 0 000 4.271l1.457 1.457-4.16 4.16-4.958-4.96-2.26 2.262a1.891 1.891 0 01-2.67-.005 1.89 1.89 0 010-2.664l2.261-2.26-4.958-4.96 4.958-4.958-2.26-2.26a1.89 1.89 0 01.004-2.67 1.89 1.89 0 012.664 0l2.26 2.261 4.96-4.958 4.159 4.159-1.462 1.462a3.025 3.025 0 00-.004 4.267z" fill="#1D5C73"/></svg>