<svg width="46" height="46" viewBox="0 0 46 46" fill="none" xmlns="http://www.w3.org/2000/svg">
<g clip-path="url(#clip0_1946_194)">
<path d="M35.8072 10.1928C34.1874 8.57891 31.994 7.67273 29.7074 7.67273C27.4208 7.67273 25.2274 8.57891 23.6076 10.1928C21.2539 12.5446 18.1068 25.6105 17.756 27.0921C17.7204 27.2505 17.7256 27.4155 17.7712 27.5714C17.8168 27.7273 17.9013 27.869 18.0167 27.9833C18.133 28.0979 18.2764 28.1813 18.4335 28.2259C18.5906 28.2704 18.7564 28.2747 18.9156 28.2382C20.3991 27.8856 33.4593 24.7346 35.8149 22.3828C36.6158 21.5819 37.2511 20.6311 37.6845 19.5846C38.118 18.5382 38.3411 17.4166 38.3411 16.284C38.3411 15.1513 38.118 14.0297 37.6845 12.9833C37.2511 11.9369 36.6158 10.986 35.8149 10.1851L35.8072 10.1928ZM29.7084 19.1666C29.1397 19.1666 28.5839 18.998 28.1111 18.6821C27.6383 18.3662 27.2698 17.9172 27.0522 17.3919C26.8346 16.8665 26.7777 16.2884 26.8886 15.7308C26.9995 15.1731 27.2733 14.6608 27.6754 14.2587C28.0775 13.8566 28.5898 13.5828 29.1475 13.4719C29.7052 13.3609 30.2832 13.4179 30.8086 13.6355C31.3339 13.8531 31.7829 14.2216 32.0988 14.6944C32.4147 15.1672 32.5834 15.723 32.5834 16.2916C32.5834 17.0541 32.2805 17.7854 31.7413 18.3246C31.2021 18.8637 30.4709 19.1666 29.7084 19.1666Z" fill="#FF8901"/>
<path d="M45.7182 7.94845L38.0516 0.281779C37.9501 0.176667 37.8256 0.0965181 37.6879 0.0476308C37.5503 -0.00125645 37.4031 -0.0175504 37.2581 2.91397e-05C37.1136 0.0175134 36.975 0.0676781 36.8528 0.146717C36.7305 0.225756 36.6279 0.331592 36.5527 0.456196L33.6777 5.24786C33.5671 5.43132 33.5212 5.64654 33.5473 5.85916C33.5733 6.07178 33.6699 6.26954 33.8215 6.42086L39.5715 12.1709C39.7227 12.322 39.9201 12.4183 40.1323 12.4443C40.3445 12.4704 40.5593 12.4247 40.7426 12.3146L45.5342 9.43961C45.6595 9.36528 45.7662 9.26337 45.8462 9.14161C45.9262 9.01986 45.9774 8.88147 45.9959 8.73697C46.0143 8.59247 45.9996 8.44566 45.9528 8.30769C45.9061 8.16973 45.8285 8.04425 45.7259 7.94078L45.7182 7.94845Z" fill="#FF8901"/>
<path d="M32.5833 34.5H9.60633C9.34678 34.5279 9.08426 34.4977 8.83782 34.4116C8.59137 34.3255 8.36718 34.1856 8.18149 34.0021C7.9958 33.8186 7.85326 33.5961 7.76422 33.3507C7.67517 33.1053 7.64185 32.8432 7.66667 32.5833C7.64135 32.3253 7.67353 32.065 7.7609 31.8209C7.84827 31.5769 7.98865 31.3552 8.17194 31.1719C8.35524 30.9886 8.57688 30.8483 8.82093 30.7609C9.06498 30.6735 9.32536 30.6413 9.58333 30.6667H13.4167C13.925 30.6667 14.4125 30.4647 14.772 30.1053C15.1314 29.7458 15.3333 29.2583 15.3333 28.75C15.3333 28.2417 15.1314 27.7541 14.772 27.3947C14.4125 27.0353 13.925 26.8333 13.4167 26.8333H9.58333C8.82219 26.8111 8.06453 26.9446 7.35684 27.2257C6.64915 27.5067 6.00636 27.9295 5.46793 28.4679C4.92949 29.0064 4.50675 29.6491 4.22567 30.3568C3.94458 31.0645 3.81107 31.8222 3.83333 32.5833C3.81107 33.3445 3.94458 34.1021 4.22567 34.8098C4.50675 35.5175 4.92949 36.1603 5.46793 36.6987C6.00636 37.2372 6.64915 37.6599 7.35684 37.941C8.06453 38.2221 8.82219 38.3556 9.58333 38.3333H32.5603C33.0687 38.3303 33.5574 38.5293 33.919 38.8866C34.2806 39.2439 34.4855 39.7302 34.4885 40.2385C34.4916 40.7468 34.2925 41.2355 33.9353 41.5971C33.578 41.9587 33.0917 42.1636 32.5833 42.1667H1.91667C1.40834 42.1667 0.920823 42.3686 0.561379 42.728C0.201934 43.0875 0 43.575 0 44.0833C0 44.5917 0.201934 45.0792 0.561379 45.4386C0.920823 45.7981 1.40834 46 1.91667 46H32.5833C34.1083 46 35.5709 45.3942 36.6492 44.3159C37.7275 43.2375 38.3333 41.775 38.3333 40.25C38.3333 38.725 37.7275 37.2625 36.6492 36.1841C35.5709 35.1058 34.1083 34.5 32.5833 34.5Z" fill="#1D5C73"/>
</g>
<defs>
<clipPath id="clip0_1946_194">
<rect width="46" height="46" fill="white"/>
</clipPath>
</defs>
</svg>
