<svg width="56" height="36" fill="none" xmlns="http://www.w3.org/2000/svg"><path d="M54.29 0H23.87a1.71 1.71 0 00-1.71 1.71v12.734c.53-.177 1.06-.236 1.65-.236a4.31 4.31 0 011.77.354V3.419h27v28.653h-27v-7.96l-3.42 1.77v7.9c0 .943.766 1.71 1.71 1.71h30.42c.944 0 1.71-.767 1.71-1.71V1.71A1.71 1.71 0 0054.29 0z" fill="#FF8901"/><path d="M26.346 17.981c-.708-1.415-2.418-1.945-3.833-1.238l-5.306 2.712s-5.66-3.832-6.249-4.244a10.408 10.408 0 00-1.71-.944c-1.886-.59-6.72-1.061-8.076 2.123-1.415 3.36-1.18 12.026-1.12 18.217 0 .53.353.943.884.943h10.258c.648 0 .825-.354.943-.825.06-.295.649-7.31.59-10.435v-1.062l2.712 1.828c.471.354 1.061.472 1.592.472.412 0 .884-.118 1.297-.295l6.838-3.479c1.297-.648 1.887-2.358 1.18-3.773zM7.067 12.44a6.19 6.19 0 100-12.381 6.19 6.19 0 000 12.38z" fill="#1D5C73"/><path d="M32.595 21.283a.574.574 0 00-.472.59v1.886c0 .354.295.648.649.59 2.77-.354 4.952-2.712 4.952-5.542v-7.075a.59.59 0 00-.59-.59h-5.129a.59.59 0 00-.59.59v5.837c0 .353.295.59.59.59h2.653v.648c0 1.238-.884 2.24-2.063 2.476zm9.02 0a.574.574 0 00-.472.59v1.886c0 .354.295.648.649.59 2.77-.354 4.952-2.712 4.952-5.542v-7.075a.59.59 0 00-.59-.59h-5.188a.59.59 0 00-.589.59v5.837c0 .353.295.59.59.59h2.653v.648c0 1.238-.885 2.24-2.005 2.476z" fill="#FF8901"/></svg>