<svg width="32" height="32" fill="none" xmlns="http://www.w3.org/2000/svg"><path d="M11.6 18.933A5.834 5.834 0 018.267 20H5.333C4.533 20 4 20.533 4 21.333c0 .8.533 1.334 1.333 1.334h2.934a8.38 8.38 0 004.933-1.6c.533-.4.667-1.334.267-1.867-.534-.667-1.334-.8-1.867-.267zm5.733-4.666c.4 0 .8-.134 1.067-.4.933-1.2 2.4-1.867 4-1.867h1.067l-.4.4a1.289 1.289 0 000 1.867c.266.266.666.4.933.4s.667-.134.933-.4L27.6 11.6c.133-.133.267-.267.267-.4.133-.267.133-.667 0-1.067-.134-.133-.134-.266-.267-.4l-2.667-2.666a1.289 1.289 0 00-1.866 0 1.289 1.289 0 000 1.866l.4.4H22.4c-2.4 0-4.533 1.067-6.133 2.8-.534.534-.4 1.334.133 1.867.267.267.667.267.933.267z" fill="#A6AFB9"/><path d="M27.6 20.4l-2.667-2.667a1.289 1.289 0 00-1.866 0 1.289 1.289 0 000 1.867l.4.4h-2c-2.134 0-3.867-1.2-4.8-3.067l-1.6-3.2c-1.334-2.666-4.134-4.4-7.2-4.4H5.333c-.8 0-1.333.534-1.333 1.334S4.533 12 5.333 12h2.534c2.133 0 3.866 1.2 4.8 3.067l1.6 3.2a7.945 7.945 0 007.2 4.533h2l-.4.4a1.289 1.289 0 000 1.867c.266.266.666.4.933.4s.667-.134.933-.4L27.6 22.4c.533-.667.533-1.467 0-2z" fill="#A6AFB9"/></svg>