<svg width="31" height="50" fill="none" xmlns="http://www.w3.org/2000/svg"><path d="M29.264 14.106l-4.97-4.952c.122 0 .183-.06.306-.122.613-.183 1.288-.367 2.086-1.1.675-.673 1.044-1.467 1.044-2.323 0-.856-.369-1.712-1.044-2.323-.675-.673-1.534-1.04-2.393-1.04-.86 0-1.657.367-2.332 1.04-.736.733-.92 1.467-1.104 2.078-.062.123-.062.245-.123.306-.982-.917-3.928-3.912-4.91-4.89-1.043-1.04-1.595-1.04-2.638 0l-4.48 4.4c-1.104 1.101-.797 1.896-.368 2.324.491.489 1.105.672 1.596.795.49.122.859.183 1.227.55.675.672.675 1.528 0 2.2-.675.673-1.534.673-2.21 0-.367-.366-.49-.733-.613-1.222-.123-.49-.307-1.04-.798-1.528-.675-.673-1.411-.55-2.331.305l-4.48 4.524c-.982.978-.982 1.59.061 2.629l4.97 4.951c-.06 0-.183.061-.306.061-.552.123-1.35.306-2.148 1.1-.675.673-1.043 1.529-1.043 2.385 0 .855.368 1.711 1.043 2.384.675.672 1.534 1.039 2.393 1.039.86 0 1.657-.367 2.394-1.04a3.918 3.918 0 001.104-2.017c.062-.122.062-.244.123-.305l4.97 4.951c.553.55.921.734 1.29.734.367 0 .736-.244 1.288-.734l4.48-4.462c.184-.183.49-.49.613-.856.246-.489.123-.978-.307-1.406-.49-.489-1.104-.672-1.534-.795-.43-.122-.797-.244-1.227-.611-.368-.367-.552-.734-.552-1.1 0-.367.184-.734.552-1.1.307-.306.736-.49 1.104-.49.369 0 .798.184 1.105.49.368.366.43.733.552 1.222.123.306.246.917.737 1.406.613.611 1.411.489 2.332-.367l4.48-4.462c.49-.49.797-.856.797-1.284 0-.49-.307-.917-.736-1.345z" fill="#FF8901"/><path d="M28.67 32.74l-9.08-4.52c-.34-.14-.7-.22-1.09-.22H17V16c0-1.66-1.34-3-3-3s-3 1.34-3 3v21.47l-6.85-1.43c-.15-.03-.31-.05-.47-.05-.62 0-1.18.26-1.59.66l-1.58 1.6 9.88 9.88c.55.54 1.3.88 2.12.88H26.1c1.51 0 2.66-1.11 2.87-2.56l1.51-10.54c.02-.14.03-.27.03-.41a3.025 3.025 0 00-1.84-2.76z" fill="#1D5C73"/></svg>