<svg width="63" height="41" fill="none" xmlns="http://www.w3.org/2000/svg"><path d="M34.9 13.534l.007 6.89c0 .24.102.46.292.613a.749.749 0 00.65.16 3.33 3.33 0 01.65-.065 3.07 3.07 0 012.192.906 3.108 3.108 0 010 4.398 3.059 3.059 0 01-2.834.833.785.785 0 00-.665.16.86.86 0 00-.292.607v6.904c0 .438.358.781.789.789l6.027-.008v.022c0 1.257.482 2.433 1.373 3.317a4.665 4.665 0 003.31 1.366c1.242 0 2.425-.49 3.295-1.373a4.584 4.584 0 001.38-3.302v-.03h6.006a.86.86 0 00.57-.226.811.811 0 00.233-.555v-6.027c.015.007.015 0 .015 0a4.612 4.612 0 003.31-1.374 4.629 4.629 0 001.373-3.31 4.62 4.62 0 00-1.374-3.302 4.654 4.654 0 00-3.31-1.373h-.014v-6.027a.81.81 0 00-.226-.555.817.817 0 00-.555-.227h-6.897a.797.797 0 00-.555.227l-.059.058a.753.753 0 00-.153.658c.044.226.058.445.058.657 0 .825-.314 1.615-.898 2.199a3.1 3.1 0 01-2.2.906 3.118 3.118 0 01-3.111-3.105c0-.212.029-.446.073-.658a.858.858 0 00-.154-.657.791.791 0 00-.614-.285H35.69c-.417 0-.782.373-.79.79z" fill="#1D5C73"/><path d="M13.667.435a.818.818 0 00-.518.3L8.954 6.213a.793.793 0 00-.153.584c0 .015.007.059.007.073.066.241.22.431.431.526.205.095.395.212.57.344a3.11 3.11 0 011.183 2.053 3.056 3.056 0 01-.599 2.293 3.102 3.102 0 01-4.354.585c-.168-.139-.329-.27-.475-.446a.828.828 0 00-.628-.277.785.785 0 00-.592.321L.16 17.75c-.263.328-.19.847.146 1.103l5.48 4.178a.75.75 0 00.664.146.774.774 0 00.519-.423c.102-.198.212-.395.343-.563a3.067 3.067 0 012.053-1.198 3.11 3.11 0 013.492 2.667c.11.818-.11 1.636-.613 2.294a2.732 2.732 0 01-.446.474.775.775 0 00-.27.629c0 .226.131.453.307.599l5.479 4.186a.8.8 0 001.11-.153l3.653-4.793.015.03a4.695 4.695 0 003.463.913 4.623 4.623 0 003.097-1.798 4.64 4.64 0 00.913-3.463 4.597 4.597 0 00-1.79-3.097l-.021-.022 3.652-4.778c.132-.16.176-.38.161-.592a.789.789 0 00-.3-.511l-4.785-3.653V9.91c.76-1 1.082-2.228.914-3.47-.161-1.242-.797-2.323-1.798-3.097a4.614 4.614 0 00-3.455-.914 4.684 4.684 0 00-3.098 1.798s.008 0-.007.014L14.252.574a.8.8 0 00-.585-.14z" fill="#FF8901"/></svg>