<svg width="30" height="30" viewBox="0 0 30 30" fill="none" xmlns="http://www.w3.org/2000/svg">
<g clip-path="url(#clip0_1927_1445)">
<path d="M14.9998 0.442104C12.1205 0.442104 9.3059 1.29591 6.91186 2.89555C4.51783 4.49519 2.65191 6.76883 1.55005 9.42893C0.448202 12.089 0.159907 15.0161 0.721627 17.8401C1.28335 20.6641 2.66985 23.258 4.70581 25.294C6.74177 27.3299 9.33574 28.7164 12.1597 29.2782C14.9836 29.8399 17.9108 29.5516 20.5709 28.4497C23.231 27.3479 25.5046 25.482 27.1042 23.0879C28.7039 20.6939 29.5577 17.8793 29.5577 15C29.5533 11.1404 28.0181 7.44004 25.2889 4.71086C22.5598 1.98168 18.8594 0.446492 14.9998 0.442104Z" fill="#A6AFB9"/>
<path d="M15.0134 22.2C15.8322 22.2 16.496 21.5362 16.496 20.7174C16.496 19.8985 15.8322 19.2347 15.0134 19.2347C14.1946 19.2347 13.5308 19.8985 13.5308 20.7174C13.5308 21.5362 14.1946 22.2 15.0134 22.2Z" fill="white"/>
<path d="M15.0141 17.3289H15.0039C14.7422 17.3262 14.4923 17.2198 14.3091 17.033C14.1258 16.8462 14.0242 16.5943 14.0265 16.3326C14.0391 15.0395 15.1018 13.7068 16.0404 12.5313C16.2339 12.2889 16.4186 12.0576 16.5797 11.8429C16.707 11.6574 16.7795 11.4398 16.7888 11.215C16.7982 10.9902 16.744 10.7673 16.6326 10.5718C16.488 10.2705 16.2652 10.0133 15.9875 9.82728C15.7098 9.64122 15.3873 9.53302 15.0536 9.51395C13.9112 9.51395 12.9781 10.2008 12.9781 11.0139C12.9781 11.2757 12.8741 11.5267 12.689 11.7118C12.504 11.8968 12.253 12.0008 11.9912 12.0008C11.7295 12.0008 11.4785 11.8968 11.2934 11.7118C11.1084 11.5267 11.0044 11.2757 11.0044 11.0139C11.0044 9.0979 12.8052 7.54026 15.0189 7.54026H15.1136C15.8072 7.56623 16.4805 7.78096 17.061 8.16131C17.6416 8.54166 18.1073 9.07321 18.4081 9.69869C18.6835 10.2207 18.8062 10.8099 18.7619 11.3985C18.7176 11.9871 18.5083 12.5513 18.1578 13.0263C17.9857 13.2561 17.7883 13.5039 17.5815 13.7637C16.9539 14.5532 16.0026 15.7374 16.0026 16.3524C15.9998 16.6126 15.8945 16.8612 15.7093 17.0441C15.5242 17.227 15.2744 17.3294 15.0141 17.3289Z" fill="white"/>
</g>
<defs>
<clipPath id="clip0_1927_1445">
<rect width="30" height="30" fill="white"/>
</clipPath>
</defs>
</svg>
